<svg height="512pt" viewBox="0 0 512 512" width="512pt" xmlns="http://www.w3.org/2000/svg"><path d="m201 356.308594v155.691406h-100.878906v-100.121094h-100.121094v-151.867187c0-33.042969 26.25-60.070313 59-61.320313.789062-.03125 1.578125-.050781 2.378906-.050781 33.839844 0 61.371094 27.53125 61.371094 61.371094v50.988281h32.941406c24.980469 0 45.308594 20.328125 45.308594 45.308594zm0 0" fill="#97a1f0"/><path d="m352 42.328125v79.34375c0 23.339844-18.988281 42.328125-42.328125 42.328125h-18.171875l-35.5 61.480469-35.5-61.480469h-18.171875c-23.339844 0-42.328125-18.988281-42.328125-42.328125v-79.34375c0-23.339844 18.988281-42.328125 42.328125-42.328125h107.34375c23.339844 0 42.328125 18.988281 42.328125 42.328125zm0 0" fill="#1020a1"/><path d="m201 356.308594v155.691406h-53v-149h-89v-164.308594c.789062-.03125 1.578125-.050781 2.378906-.050781 33.839844 0 61.371094 27.53125 61.371094 61.371094v50.988281h32.941406c24.980469 0 45.308594 20.328125 45.308594 45.308594zm0 0" fill="#6d76e7"/><path d="m135.828125 160.71875c0 37.339844-30.289063 67.730469-67.578125 67.921875h-.339844c-37.441406 0-67.910156-30.46875-67.910156-67.921875 0-37.4375 30.46875-67.910156 67.910156-67.910156h.339844c37.289062.191406 67.578125 30.582031 67.578125 67.910156zm0 0" fill="#ffdba9"/><path d="m135.828125 160.71875c0 37.339844-30.289063 67.730469-67.578125 67.921875v-135.832031c37.289062.191406 67.578125 30.582031 67.578125 67.910156zm0 0" fill="#ffc473"/><path d="m311 356.308594v155.691406h100.878906v-100.121094h100.121094v-151.867187c0-33.042969-26.25-60.070313-59-61.320313-.789062-.03125-1.578125-.050781-2.378906-.050781-33.839844 0-61.371094 27.53125-61.371094 61.371094v50.988281h-32.941406c-24.980469 0-45.308594 20.328125-45.308594 45.308594zm0 0" fill="#6d76e7"/><path d="m311 356.308594v155.691406h53v-149h89v-164.308594c-.789062-.03125-1.578125-.050781-2.378906-.050781-33.839844 0-61.371094 27.53125-61.371094 61.371094v50.988281h-32.941406c-24.980469 0-45.308594 20.328125-45.308594 45.308594zm0 0" fill="#97a1f0"/><path d="m376.171875 160.71875c0 37.339844 30.289063 67.730469 67.578125 67.921875h.339844c37.441406 0 67.910156-30.46875 67.910156-67.921875 0-37.4375-30.46875-67.910156-67.910156-67.910156h-.339844c-37.289062.191406-67.578125 30.582031-67.578125 67.910156zm0 0" fill="#ffc473"/><path d="m376.171875 160.71875c0 37.339844 30.289063 67.730469 67.578125 67.921875v-135.832031c-37.289062.191406-67.578125 30.582031-67.578125 67.910156zm0 0" fill="#ffdba9"/><path d="m352 42.328125v79.34375c0 23.339844-18.988281 42.328125-42.328125 42.328125h-18.171875l-35.5 61.480469v-225.480469h53.671875c23.339844 0 42.328125 18.988281 42.328125 42.328125zm0 0" fill="#081476"/></svg>