<?xml version="1.0" ?><!DOCTYPE svg  PUBLIC '-//W3C//DTD SVG 1.1//EN'  'http://www.w3.org/Graphics/SVG/1.1/DTD/svg11.dtd'><svg height="512px" style="enable-background:new 0 0 512 512;" version="1.1" viewBox="0 0 512 512" width="512px" xml:space="preserve" xmlns="http://www.w3.org/2000/svg" xmlns:xlink="http://www.w3.org/1999/xlink"><g id="_x37_27_x2C__Business_x2C__engineering_x2C__management_x2C__process"><g><path d="M313.471,74.84c0.854,1.529,0.353,3.463-1.179,4.341    c-1.506,0.88-3.463,0.378-4.343-1.154l-3.789-6.575c-10.164,6.45-18.797,15.084-25.247,25.248l6.576,3.789    c1.529,0.878,2.031,2.836,1.153,4.342c-0.853,1.53-2.811,2.059-4.341,1.18l-6.576-3.815c-5.446,10.365-8.733,22.061-9.21,34.482    h7.579c1.756,0,3.188,1.433,3.188,3.188c0,1.757-1.432,3.187-3.188,3.187h-7.604c0.478,12.424,3.765,24.118,9.235,34.483    l6.601-3.789c1.506-0.879,3.464-0.353,4.316,1.152c0.878,1.532,0.352,3.465-1.153,4.344l-6.576,3.788    c6.425,10.165,15.083,18.823,25.247,25.247l3.789-6.574c0.88-1.53,2.837-2.032,4.343-1.154c1.531,0.879,2.032,2.811,1.179,4.342    l-3.814,6.576c10.365,5.444,22.061,8.758,34.483,9.234v-7.578c0-1.759,1.431-3.189,3.187-3.189c1.758,0,3.188,1.431,3.188,3.189    v7.578c12.423-0.477,24.118-3.764,34.484-9.234l-3.791-6.576c-0.878-1.531-0.377-3.463,1.154-4.342    c1.506-0.878,3.463-0.376,4.343,1.154l3.788,6.574c10.19-6.424,18.824-15.057,25.248-25.247l-6.575-3.788    c-1.506-0.879-2.032-2.812-1.154-4.344c0.853-1.505,2.811-2.031,4.316-1.152l6.602,3.789c5.445-10.365,8.733-22.06,9.235-34.483    h-7.605c-1.756,0-3.162-1.43-3.162-3.187c0-1.756,1.406-3.188,3.162-3.188h7.605c-0.478-12.422-3.766-24.117-9.235-34.482    l-6.602,3.815c-1.506,0.852-3.464,0.351-4.316-1.18c-0.878-1.531-0.352-3.464,1.154-4.342l6.575-3.789    c-6.424-10.164-15.058-18.824-25.248-25.248l-3.788,6.575c-0.88,1.532-2.837,2.034-4.343,1.154    c-1.531-0.878-2.032-2.812-1.154-4.341l3.791-6.575c-10.366-5.446-22.062-8.733-34.484-9.211v7.579    c0,1.756-1.43,3.187-3.188,3.187c-1.756,0-3.187-1.431-3.187-3.187v-7.579c-12.423,0.478-24.118,3.739-34.483,9.211L313.471,74.84    z M351.217,135.975c-0.979-0.979-2.359-1.605-3.891-1.605c-1.506,0-2.885,0.627-3.889,1.605c-0.979,1.004-1.607,2.385-1.607,3.891    c0,1.53,0.604,2.885,1.607,3.891c0.978,1.004,2.383,1.605,3.889,1.605c1.531,0,2.912-0.602,3.891-1.605    c1.004-0.979,1.606-2.36,1.606-3.891C352.823,138.359,352.221,136.979,351.217,135.975z M346.348,151.71l-16.012,43.569    c-0.602,1.656-2.434,2.509-4.09,1.906c-1.656-0.602-2.485-2.436-1.883-4.09l16.037-43.594c-0.527-0.377-1.029-0.779-1.48-1.229    c-2.133-2.158-3.463-5.12-3.463-8.407c0-1.205,0.175-2.359,0.501-3.464l-36.993-35.562c-1.254-1.23-1.305-3.238-0.075-4.492    c1.205-1.255,3.213-1.306,4.468-0.1l36.113,34.707c2.084-1.832,4.845-2.961,7.855-2.961c3.289,0,6.25,1.33,8.408,3.488    l0.251,0.252l35.788-18.799c1.555-0.803,3.488-0.2,4.291,1.355c0.803,1.557,0.201,3.463-1.355,4.267l-35.787,18.797    c0.201,0.804,0.275,1.656,0.275,2.511c0,3.287-1.33,6.249-3.463,8.407c-2.158,2.134-5.119,3.464-8.408,3.464    C347.001,151.736,346.675,151.736,346.348,151.71z M229.523,335.971h17.894v34.934h-17.894V335.971z M259.539,314.01h17.918    v56.895h-17.918V314.01z M169.467,328.441h17.894v42.463h-17.894V328.441z M293.368,384.105H163.092v-6.174h130.276v3.088V384.105    z M199.482,301.035h17.894v69.869h-17.894V301.035z M208.592,264.52l-22.763,12.398c-1.481,0.803-3.363,0.252-4.166-1.229    c-0.402-0.777-0.478-1.657-0.227-2.409l2.259-8.183c-10.867-3.739-19.526-11.243-24.846-20.629    c-5.797-10.163-7.704-22.563-4.341-34.733c0.426-1.632,2.133-2.611,3.764-2.158c1.632,0.451,2.586,2.133,2.159,3.764    c-2.911,10.541-1.255,21.281,3.765,30.09c4.542,8.032,11.896,14.482,21.132,17.744l1.254-4.566    c-7.98-2.937-14.33-8.534-18.295-15.511c-4.392-7.755-5.848-17.191-3.313-26.476c0.452-1.633,2.133-2.611,3.789-2.158    c1.631,0.451,2.585,2.132,2.133,3.764c-2.083,7.654-0.903,15.435,2.735,21.834c3.188,5.596,8.257,10.139,14.581,12.598    l2.786-10.139c0.452-1.631,2.134-2.585,3.765-2.133c0.803,0.201,1.456,0.727,1.832,1.38l13.301,22.411    c0.879,1.457,0.376,3.364-1.079,4.217L208.592,264.52z M195.743,198.189c7.955,2.936,14.305,8.533,18.271,15.484    c4.417,7.756,5.872,17.217,3.312,26.502c-0.452,1.632-2.133,2.584-3.764,2.158c-1.632-0.451-2.61-2.132-2.159-3.789    c2.107-7.629,0.903-15.434-2.735-21.834c-3.188-5.571-8.231-10.114-14.581-12.574l-2.761,10.114    c-0.452,1.632-2.133,2.61-3.79,2.158c-0.803-0.225-1.43-0.728-1.832-1.405l-13.301-22.386c-0.854-1.481-0.376-3.364,1.079-4.216    l0.251-0.125l22.737-12.399c1.481-0.802,3.363-0.251,4.166,1.23c0.427,0.777,0.478,1.632,0.227,2.409l-2.234,8.156    c10.867,3.739,19.5,11.244,24.846,20.631c5.772,10.163,7.68,22.561,4.342,34.758c-0.452,1.632-2.133,2.584-3.765,2.158    c-1.657-0.451-2.61-2.134-2.158-3.791c2.886-10.539,1.23-21.281-3.764-30.09c-4.567-8.006-11.921-14.455-21.131-17.718    L195.743,198.189z M50.81,286.855v14.28l55.063,8.282c1.605,10.391,4.316,20.404,8.005,29.966l-43.542,34.658l14.305,24.771    l51.825-20.402c6.525,8.056,13.878,15.433,21.934,21.934l-20.378,51.85l24.746,14.28l34.684-43.542    c9.536,3.688,19.575,6.399,29.965,8.029l8.257,55.038h28.584l8.283-55.038c10.39-1.63,20.403-4.342,29.965-8.029l34.684,43.542    l24.746-14.28l-20.379-51.85c8.056-6.501,15.41-13.854,21.909-21.934l51.85,20.377l14.28-24.745l-43.543-34.685    c3.689-9.535,6.425-19.549,8.03-29.939l55.038-8.282v-14.28v-14.305l-55.038-8.282c-0.476-3.136-1.079-6.224-1.757-9.312    c-13.953,5.472-29.111,8.459-44.998,8.459c-67.083,0-121.668-53.455-123.5-120.088c-9.111,1.656-17.944,4.167-26.376,7.404    l-34.684-43.518l-24.746,14.279l20.378,51.85c-8.056,6.5-15.409,13.879-21.934,21.936L84.64,174.875l-14.305,24.744l43.542,34.686    c-3.688,9.561-6.399,19.574-8.005,29.964l-55.063,8.282V286.855z M347.326,26.002c62.894,0,113.864,50.971,113.864,113.863    c0,62.867-50.971,113.864-113.864,113.864c-62.892,0-113.863-50.997-113.863-113.864    C233.463,76.973,284.435,26.002,347.326,26.002z" style="fill-rule:evenodd;clip-rule:evenodd;"/></g></g><g id="Layer_1"/></svg>