<?xml version="1.0" encoding="iso-8859-1"?>
<!-- Generator: Adobe Illustrator 19.0.0, SVG Export Plug-In . SVG Version: 6.00 Build 0)  -->
<svg version="1.1" id="Capa_1" xmlns="http://www.w3.org/2000/svg" xmlns:xlink="http://www.w3.org/1999/xlink" x="0px" y="0px"
	 viewBox="0 0 480 480" style="enable-background:new 0 0 480 480;" xml:space="preserve">
<path style="fill:#C49A6C;" d="M128,119.999H8v352h464v-352H128z M424,423.999H56v-256h368V423.999z"/>
<path style="fill:#C2DFF6;" d="M56,423.999l80-128l56.72,90.8l102.8-154.8l128.48,192v-256H56V423.999z M192,215.999
	c13.255,0,24,10.745,24,24c0,13.255-10.745,24-24,24s-24-10.745-24-24C168,226.744,178.745,215.999,192,215.999z"/>
<path style="fill:#5EAC24;" d="M192.72,386.799l-24.72,37.2h256l-128.48-192L192.72,386.799z"/>
<path style="fill:#4E901E;" d="M136,295.999l-80,128h112l24.72-37.2L136,295.999z"/>
<circle style="fill:#FF7956;" cx="192" cy="239.999" r="24"/>
<g>
	<path style="fill:#231F20;" d="M472,111.999H355.312L245.656,2.343c-3.124-3.123-8.188-3.123-11.312,0L124.688,111.999H8
		c-4.418,0-8,3.582-8,8v352c0,4.418,3.582,8,8,8h464c4.418,0,8-3.582,8-8v-352C480,115.581,476.418,111.999,472,111.999z
		 M240,19.311l92.688,92.688H147.312L240,19.311z M464,463.999H16v-336h448V463.999z"/>
	<path style="fill:#231F20;" d="M431.92,424.383c0-0.136,0.08-0.248,0.08-0.384v-256c0-4.418-3.582-8-8-8H56c-4.418,0-8,3.582-8,8
		v256c0,0.088,0.048,0.16,0.048,0.256c0.038,0.839,0.206,1.668,0.496,2.456c0.088,0.232,0.16,0.448,0.264,0.672
		c0.056,0.166,0.12,0.329,0.192,0.488c0.357,0.642,0.801,1.232,1.32,1.752c0.056,0.056,0.128,0.088,0.184,0.144
		c0.611,0.569,1.308,1.039,2.064,1.392c0.219,0.105,0.443,0.198,0.672,0.28c0.879,0.351,1.814,0.541,2.76,0.56h368
		c0.946-0.019,1.881-0.209,2.76-0.56c0.235-0.086,0.464-0.184,0.688-0.296c0.712-0.339,1.37-0.781,1.952-1.312
		c0.096-0.088,0.216-0.152,0.304-0.24c0.534-0.541,0.99-1.155,1.352-1.824c0.064-0.128,0.088-0.272,0.144-0.4
		c0.1-0.23,0.188-0.465,0.264-0.704C431.73,425.93,431.883,425.162,431.92,424.383L431.92,424.383z M416,175.999v221.664
		L302.168,227.551c-1.484-2.219-3.978-3.552-6.648-3.552c-2.673,0.004-5.167,1.343-6.648,3.568L192.92,371.999l-50.136-80.24
		c-2.327-3.756-7.259-4.913-11.014-2.586c-1.05,0.651-1.935,1.536-2.586,2.586L64,396.103V175.999H416z M70.44,415.999L136,311.095
		l47.2,75.56l-19.496,29.344H70.44z M182.92,415.999l16.464-24.8l96.16-144.8l113.48,169.6L182.92,415.999z"/>
	<path style="fill:#231F20;" d="M192,271.999c-17.673,0-32-14.327-32-32c0-17.673,14.327-32,32-32s32,14.327,32,32
		C224,257.672,209.673,271.999,192,271.999z M192,223.999c-8.837,0-16,7.163-16,16c0,8.837,7.163,16,16,16s16-7.163,16-16
		C208,231.163,200.837,223.999,192,223.999z"/>
</g>
<g>
</g>
<g>
</g>
<g>
</g>
<g>
</g>
<g>
</g>
<g>
</g>
<g>
</g>
<g>
</g>
<g>
</g>
<g>
</g>
<g>
</g>
<g>
</g>
<g>
</g>
<g>
</g>
<g>
</g>
</svg>
