<?xml version="1.0" encoding="iso-8859-1"?>
<!-- Generator: Adobe Illustrator 19.0.0, SVG Export Plug-In . SVG Version: 6.00 Build 0)  -->
<svg version="1.1" id="Layer_1" xmlns="http://www.w3.org/2000/svg" xmlns:xlink="http://www.w3.org/1999/xlink" x="0px" y="0px"
	 viewBox="0 0 504.123 504.123" style="enable-background:new 0 0 504.123 504.123;" xml:space="preserve">
<path style="fill:#3BABFF;" d="M315.171,484.643c0,18.526-15.013,19.48-33.54,19.48l0,0c-18.527,0-33.54-0.953-33.54-19.48V369.262
	c0-18.527,15.013-20.921,33.54-20.921l0,0c18.527,0,33.54,2.402,33.54,20.921V484.643z"/>
<path style="fill:#3E68FF;" d="M315.171,484.643c0,18.526-15.013,19.48-33.54,19.48l0,0c-18.527,0-33.54-0.953-33.54-19.48V369.262
	c0-18.527,15.013-20.921,33.54-20.921l0,0c18.527,0,33.54,2.402,33.54,20.921V484.643z"/>
<path style="fill:#3BABFF;" d="M281.632,348.341c-18.527,0-33.54,2.402-33.54,20.921v5.049c0,18.527,15.013,19.464,33.54,19.464
	s33.54-0.937,33.54-19.464v-5.049C315.171,350.736,300.15,348.341,281.632,348.341z"/>
<path style="fill:#A1ABAD;" d="M284.396,263.522c-1.245-0.291-2.521-0.465-3.844-0.465H96.996c-14.304,0-25.954-11.65-25.954-25.97
	V118.816c0-14.304,11.65-25.954,25.954-25.954c9.57,0,17.306-7.751,17.306-17.306c0-9.57-7.735-17.321-17.306-17.321
	c-33.398,0-60.581,27.183-60.581,60.581v118.28c0,33.398,27.183,60.581,60.581,60.581h167.322v60.03
	c0,9.57,7.751,17.306,17.306,17.306s17.306-7.735,17.306-17.306v-77.154C298.937,271.935,292.628,264.862,284.396,263.522z"/>
<path style="fill:#839193;" d="M284.396,295.968c-1.245-0.276-2.521-0.465-3.844-0.465H96.996c-14.304,0-25.954-11.65-25.954-25.97
	v-32.437v-85.819v-32.461c0-14.304,11.65-25.954,25.954-25.954c2.064,0,4.017-0.433,5.845-1.095
	c-1.827-0.662-3.781-1.079-5.845-1.079c-33.398,0-60.581,27.183-60.581,60.581v85.827c0,33.398,27.183,60.581,60.581,60.581h167.322
	v32.445v36.336c0,9.555,7.751,8.554,17.306,8.554s17.306,1,17.306-8.554v-53.461C298.937,304.388,292.628,297.307,284.396,295.968z"
	/>
<path style="fill:#FF6E0B;" d="M467.708,103.849c0,23.906-19.385,43.276-43.276,43.276H138.831
	c-23.906,0-43.276-19.369-43.276-43.276V43.276C95.555,19.369,114.924,0,138.831,0h285.601c23.891,0,43.276,19.369,43.276,43.276
	V103.849z"/>
<path style="fill:#FF8F08;" d="M138.831,0c-22.599,0-40.936,17.384-42.89,39.479c1.953,22.111,20.291,39.495,42.89,39.495h285.601
	c22.599,0,40.936-17.384,42.89-39.495C465.369,17.384,447.031,0,424.432,0H138.831z"/>
<g>
	<path style="fill:#3BABFF;" d="M294.613,414.058c0,1.339-1.095,2.434-2.434,2.434h-21.11c-1.339,0-2.434-1.095-2.434-2.434l0,0
		c0-1.339,1.095-2.434,2.434-2.434h21.11C293.526,411.632,294.613,412.719,294.613,414.058L294.613,414.058z"/>
	<path style="fill:#3BABFF;" d="M294.613,435.688c0,1.355-1.095,2.434-2.434,2.434h-21.11c-1.339,0-2.434-1.079-2.434-2.434l0,0
		c0-1.339,1.095-2.434,2.434-2.434h21.11C293.526,433.262,294.613,434.357,294.613,435.688L294.613,435.688z"/>
	<path style="fill:#3BABFF;" d="M294.613,457.342c0,1.339-1.095,2.434-2.434,2.434h-21.11c-1.339,0-2.434-1.095-2.434-2.434l0,0
		c0-1.355,1.095-2.45,2.434-2.45h21.11C293.526,454.892,294.613,455.987,294.613,457.342L294.613,457.342z"/>
	<path style="fill:#3BABFF;" d="M294.613,478.972c0,1.339-1.095,2.434-2.434,2.434h-21.11c-1.339,0-2.434-1.095-2.434-2.434l0,0
		c0-1.339,1.095-2.434,2.434-2.434h21.11C293.526,476.538,294.613,477.633,294.613,478.972L294.613,478.972z"/>
</g>
<g>
</g>
<g>
</g>
<g>
</g>
<g>
</g>
<g>
</g>
<g>
</g>
<g>
</g>
<g>
</g>
<g>
</g>
<g>
</g>
<g>
</g>
<g>
</g>
<g>
</g>
<g>
</g>
<g>
</g>
</svg>
